<svg width="36" height="36" viewBox="0 0 36 36" fill="none" xmlns="http://www.w3.org/2000/svg"><path fill-rule="evenodd" clip-rule="evenodd" d="M17.5787 0.0966811C17.482 0.148642 13.6535 1.82236 9.07095 3.81445C4.48838 5.80662 0.62503 7.49215 0.485743 7.5586C-0.0399784 7.80926 0.00073215 6.92789 0.00073215 17.9912C0.00073215 29.0391 -0.0361112 28.2367 0.479977 28.4502C0.622429 28.5091 4.58963 30.2366 9.29594 32.2822C14.0022 34.3279 17.9256 36.0008 18.0146 36C18.1035 35.9992 22.1314 34.2704 26.9653 32.168C34.5883 28.8526 35.7705 28.3261 35.8769 28.1514C35.9921 27.9623 35.9996 27.3383 36 18.0088C36.0003 8.82085 35.9914 8.05134 35.882 7.86621C35.736 7.61906 36.4928 7.96831 26.432 3.59473C21.5611 1.47734 18.0801 -0.00168606 17.9594 1.44253e-06C17.8467 0.00154832 17.6753 0.0447905 17.5787 0.0966811ZM17.2102 16.1104L17.192 19.7842L9.38735 23.1768C5.09482 25.0441 1.55905 26.5774 1.53001 26.5781C1.50097 26.5789 1.47728 22.5676 1.47728 17.666V8.75391L9.33462 5.33496L17.192 1.92481L17.2101 6.31934C17.2558 17.4599 17.2507 7.92447 17.2102 16.1104ZM27.018 5.48438L34.5238 8.75391V17.666C34.5238 26.1274 34.5175 26.581 34.4007 26.543C34.333 26.5209 30.7973 24.9919 26.5434 23.1416L18.8091 19.7754L18.7909 16.1016C18.7501 7.8604 18.8413 18.6834 18.7911 6.33692L18.7729 1.89844L19.1426 2.05664C19.3459 2.1458 22.8899 3.68909 27.018 5.48438ZM25.7527 24.4336C29.9197 26.246 33.3052 27.7484 33.276 27.7734C33.1701 27.8644 18.1031 34.3836 18.0005 34.3828C17.898 34.382 2.83057 27.8626 2.72531 27.7734C2.64923 27.709 17.8675 21.0958 18.0357 21.1201C18.113 21.1313 21.5857 22.6212 25.7527 24.4336Z" fill="#003DF6" data-darkreader-inline-fill="" style="--darkreader-inline-fill: #0031c5;"></path> <path fill-rule="evenodd" clip-rule="evenodd" d="M15.3105 24.786C15.446 25.087 15.3119 25.4408 15.0109 25.5764L10.1759 27.7536L14.9876 29.6797C15.2941 29.8023 15.4431 30.1502 15.3204 30.4566C15.1977 30.7631 14.8499 30.912 14.5435 30.7894L8.42634 28.3409C8.20379 28.2518 8.05599 28.0383 8.05092 27.7987C8.04584 27.559 8.18446 27.3395 8.40304 27.241L14.5202 24.4864C14.8211 24.3509 15.175 24.485 15.3105 24.786Z" fill="#003DF6" data-darkreader-inline-fill="" style="--darkreader-inline-fill: #3893ff;"></path> <path fill-rule="evenodd" clip-rule="evenodd" d="M19.9864 30.4796C19.8508 30.1787 19.985 29.8248 20.2859 29.6893L25.121 27.512L20.3092 25.586C20.0028 25.4633 19.8538 25.1154 19.9765 24.809C20.0991 24.5026 20.447 24.3536 20.7534 24.4762L26.8705 26.9248C27.0931 27.0139 27.2409 27.2273 27.246 27.467C27.251 27.7066 27.1124 27.9262 26.8938 28.0246L20.7767 30.7792C20.4757 30.9147 20.1219 30.7806 19.9864 30.4796Z" fill="#003DF6" data-darkreader-inline-fill="" style="--darkreader-inline-fill: #3893ff;"></path> <path fill-rule="evenodd" clip-rule="evenodd" d="M9.5625 27.5625C9.5625 27.213 9.84582 26.9297 10.1953 26.9297L24.7498 26.9297C25.0993 26.9297 25.3826 27.213 25.3826 27.5625C25.3826 27.912 25.0993 28.1953 24.7498 28.1953L10.1953 28.1953C9.84582 28.1953 9.5625 27.912 9.5625 27.5625Z" fill="#003DF6" data-darkreader-inline-fill="" style="--darkreader-inline-fill: #3893ff;"></path></svg>