<svg width="36" height="32" viewBox="0 0 36 32" fill="none" xmlns="http://www.w3.org/2000/svg"><path fill-rule="evenodd" clip-rule="evenodd" d="M13.9402 1.53945C11.411 2.55685 10.0652 3.13351 9.95434 3.24726C9.86227 3.34175 9.78097 3.49847 9.77372 3.5955C9.76648 3.69253 9.76402 5.86218 9.76831 8.41698L9.77611 13.0621L9.96953 13.2545C10.2041 13.4878 17.6633 16.5089 18.0049 16.5089C18.3465 16.5089 25.8058 13.4878 26.0403 13.2545L26.2337 13.0621L26.2416 8.41698C26.2458 5.86218 26.2435 3.69253 26.2362 3.5955C26.229 3.49847 26.1384 3.33568 26.035 3.23371C25.7943 2.99647 18.3233 -0.00493345 17.9857 6.09009e-06C17.8605 0.00184078 16.0484 0.69133 13.9402 1.53945ZM20.7289 2.62523C22.2083 3.21713 23.4187 3.71722 23.4187 3.73663C23.4187 3.75603 22.2006 4.25923 20.7118 4.85494L18.0049 5.9379L15.2981 4.85494C13.8093 4.25923 12.5911 3.75603 12.5911 3.73663C12.5911 3.69937 17.8495 1.56704 17.9693 1.55575C18.0078 1.55208 19.2497 2.03333 20.7289 2.62523ZM14.2433 6.05151L17.1961 7.23728L17.2143 10.9493L17.2325 14.6614L14.2428 13.4608L11.2531 12.2602V8.56291C11.2531 6.52945 11.2615 4.86567 11.2718 4.86567C11.2821 4.86567 12.6193 5.39928 14.2433 6.05151ZM24.7568 8.56291V12.2602L21.767 13.4608L18.7773 14.6614L18.7955 10.9493L18.8137 7.23707L21.7325 6.05779C23.3378 5.40923 24.675 4.87562 24.704 4.87209C24.7331 4.86856 24.7568 6.52945 24.7568 8.56291ZM4.14957 16.6131C0.72702 17.9919 0.23104 18.2106 0.123432 18.3881C0.00998711 18.5754 0.000703318 18.9467 0.000351659 23.3349L0 28.0793L0.193412 28.289C0.347931 28.4566 1.16779 28.8113 4.27294 30.0542C6.41032 30.9098 8.20033 31.6098 8.25076 31.6098C8.37883 31.6098 16.0142 28.5352 16.2166 28.4022C16.3073 28.3425 16.4161 28.1746 16.4583 28.0289C16.5114 27.8458 16.5286 26.3306 16.514 23.1259L16.4928 18.4879L16.3119 18.3064C16.1008 18.0946 8.51619 15.0245 8.22882 15.0344C8.13211 15.0378 6.29645 15.7482 4.14957 16.6131ZM23.742 16.5766C21.0812 17.643 19.8226 18.1814 19.698 18.3064L19.5171 18.4879L19.4959 23.1259C19.4813 26.3306 19.4985 27.8458 19.5515 28.0289C19.5938 28.1746 19.7026 28.3425 19.7933 28.4022C19.9957 28.5352 27.631 31.6098 27.7591 31.6098C27.8095 31.6098 29.5995 30.9089 31.7369 30.0523C34.2636 29.0397 35.6846 28.4344 35.7989 28.3219L35.9747 28.1489L35.9928 23.3698C36.0101 18.8298 36.0044 18.58 35.8812 18.3788C35.765 18.1893 35.3414 18.0027 31.8359 16.5971C29.6823 15.7335 27.8494 15.0273 27.7628 15.0277C27.6761 15.0281 25.8668 15.7251 23.742 16.5766ZM10.9802 17.6838L13.7318 18.7881L11.0339 19.8713C9.55014 20.467 8.29662 20.9545 8.24837 20.9545C8.11467 20.9545 2.81081 18.8165 2.84907 18.778C2.8675 18.7596 4.07755 18.2618 5.53806 17.6719C6.99864 17.082 8.20153 16.5949 8.21116 16.5894C8.2208 16.5839 9.46687 17.0764 10.9802 17.6838ZM30.4888 17.6755C31.9201 18.2483 33.1151 18.7379 33.1443 18.7636C33.1974 18.8101 27.9287 20.9545 27.7615 20.9545C27.7132 20.9545 26.4597 20.467 24.9759 19.8713L22.2781 18.7881L25.0119 17.6869C26.5156 17.0812 27.7775 16.5966 27.8162 16.6098C27.8549 16.6231 29.0576 17.1027 30.4888 17.6755ZM4.72981 21.2026L7.5255 22.3224V26.0182C7.5255 29.506 7.51861 29.7118 7.40242 29.6746C7.33469 29.6529 5.98172 29.1141 4.39573 28.4772L1.51213 27.3193L1.49392 23.6064L1.4757 19.8936L1.70491 19.9881C1.83102 20.0401 3.19222 20.5867 4.72981 21.2026ZM14.9285 27.3131C14.889 27.3512 11.4212 28.7599 9.09038 29.6847C9.02075 29.7123 9.00247 28.9502 9.00247 26.0147V22.3097L11.974 21.1168L14.9455 19.9238L14.9637 23.5927C14.9737 25.6107 14.9579 27.2848 14.9285 27.3131ZM27.0074 26.0073C27.0074 28.0407 26.999 29.7045 26.9887 29.7045C26.9784 29.7045 25.6412 29.1709 24.0172 28.5187L21.0644 27.3329L21.0461 23.6208L21.0279 19.9088L24.0177 21.1094L27.0074 22.3099V26.0073ZM34.4808 27.3085C34.4265 27.3561 28.5836 29.7045 28.5195 29.7045C28.5001 29.7045 28.4844 28.0435 28.4844 26.0133V22.3222L31.491 21.1165L34.4977 19.9108L34.5159 23.5862C34.5259 25.6077 34.5101 27.2827 34.4808 27.3085Z" fill="#003DF6" data-darkreader-inline-fill="" style="--darkreader-inline-fill: #0031c5;"></path></svg>