<svg width="36" height="34" viewBox="0 0 36 34" fill="none" xmlns="http://www.w3.org/2000/svg"><path fill-rule="evenodd" clip-rule="evenodd" d="M9.1988 3.5213C4.4548 5.4578 0.505421 7.06245 0.422311 7.08719C0.33927 7.11192 0.210315 7.22597 0.135782 7.3406C0.00366276 7.54389 0.000217394 7.78273 6.45292e-06 16.8722C-0.000274802 25.5412 0.00816284 26.2086 0.11968 26.3857C0.212987 26.5339 0.450928 26.6634 1.19196 26.9695C7.33408 29.5065 17.7332 33.7243 17.9074 33.7492C18.0893 33.7753 19.6772 33.1508 26.4153 30.403C36.4949 26.2927 35.736 26.6149 35.882 26.3831C35.9914 26.2094 36.0003 25.4913 36 16.8722C35.9996 8.12031 35.9921 7.53756 35.8769 7.36019C35.7705 7.19628 34.5883 6.69552 26.965 3.58541C22.131 1.61317 18.0967 -0.000263805 18 3.23535e-08C17.9034 0.000263869 13.9428 1.58487 9.1988 3.5213ZM25.7345 4.61207C29.8532 6.29251 33.2468 7.68695 33.276 7.71077C33.3051 7.73464 31.7797 8.38606 29.8861 9.15844L26.4433 10.5628L22.415 8.83293C19.8265 7.72139 18.2792 7.09194 18.0858 7.07195C17.8615 7.04873 17.6915 7.08231 17.4178 7.2038C17.216 7.29344 15.3647 8.08555 13.304 8.96399L9.55712 10.5613L6.9406 9.49358C2.75862 7.78715 2.67692 7.75298 2.7094 7.72257C2.72642 7.70661 6.13424 6.30478 10.2823 4.60745C15.6755 2.40065 17.8844 1.52643 18.0352 1.53903C18.1512 1.54872 21.6159 2.93162 25.7345 4.61207ZM5.35552 10.3806L8.96472 11.8545L8.99988 15.9049C9.03145 19.5427 9.04699 19.9719 9.15225 20.1173C9.23867 20.2366 10.3152 20.7215 13.2463 21.9612L17.223 23.6432L17.2248 27.8103L17.2266 31.9776L15.4863 31.2682C14.5291 30.878 10.9854 29.4333 7.61118 28.0575L1.47631 25.5563V17.1913C1.47631 8.97257 1.4787 8.82713 1.61132 8.86664C1.68557 8.88873 3.37049 9.57002 5.35552 10.3806ZM17.2266 12.2853V15.7354L13.9123 17.1498C12.0894 17.9278 10.5703 18.5743 10.5366 18.5865C10.502 18.599 10.4831 17.1046 10.4934 15.157L10.5116 11.7054L13.8515 10.2757C15.6885 9.48942 17.1994 8.84368 17.209 8.84071C17.2186 8.83775 17.2266 10.3878 17.2266 12.2853ZM22.6056 10.4718L25.4884 11.7045L25.5067 15.1566C25.5169 17.1044 25.4981 18.599 25.4635 18.5865C25.4297 18.5743 23.9107 17.9278 22.0878 17.1498L18.7735 15.7354V12.2891V8.84282L19.2481 9.04097C19.5091 9.15 21.02 9.79383 22.6056 10.4718ZM34.5238 17.1965V25.5577L26.7717 28.7162C22.508 30.4534 18.964 31.9012 18.896 31.9334C18.7787 31.9892 18.7733 31.7817 18.7906 27.8195L18.8086 23.6468L22.7797 21.9531C25.5565 20.7689 26.7831 20.2141 26.8579 20.1083C26.9499 19.9784 26.97 19.3859 27.0002 15.9069L27.0353 11.8566L30.7268 10.3483C32.7571 9.51871 34.442 8.83893 34.471 8.83768C34.5001 8.83636 34.5238 12.5978 34.5238 17.1965ZM21.2532 18.3382C22.9834 19.0753 24.3753 19.6984 24.3461 19.7228C24.3169 19.7473 22.8788 20.3687 21.1503 21.1038L18.0075 22.4403L14.8572 21.103C13.1246 20.3675 11.6833 19.7463 11.6544 19.7225C11.5942 19.6731 17.9275 16.9506 18.036 16.9792C18.0751 16.9896 19.5228 17.6011 21.2532 18.3382Z" fill="#003DF6" data-darkreader-inline-fill="" style="--darkreader-inline-fill: #0031c5;"></path></svg>