<svg width="37" height="36" viewBox="0 0 37 36" fill="none" xmlns="http://www.w3.org/2000/svg"><path fill-rule="evenodd" clip-rule="evenodd" d="M27.9448 0.0889183C24.7646 0.636725 22.2174 3.10179 21.671 6.16064C20.9412 10.2452 23.6788 14.1018 27.8574 14.8755C28.1736 14.9341 28.4451 14.9819 28.4608 14.9819C28.4764 14.9819 28.481 18.3644 28.4709 22.4985L28.4525 30.015L25.008 30.0333L21.5635 30.0515V22.1272C21.5635 15.4379 21.5475 14.1656 21.461 13.9634C21.2509 13.4727 21.8607 13.5033 12.2906 13.5033C4.30285 13.5033 3.64447 13.5122 3.45266 13.6228C3.33868 13.6885 3.22002 13.7915 3.189 13.8516C3.15805 13.9118 3.11643 17.5731 3.09659 21.988L3.06052 30.015L1.76207 30.0509C1.04792 30.0707 0.410886 30.1122 0.346469 30.1431C0.282051 30.1739 0.174496 30.3003 0.107553 30.424C-0.00130014 30.6249 -0.011832 30.9105 0.00829398 33.1291L0.0308005 35.6097L0.230834 35.8048L0.430796 36H18.4616H36.4924L36.6924 35.8048L36.8924 35.6097L36.9149 33.1291C36.9348 30.9288 36.9239 30.6237 36.818 30.4281C36.7523 30.3068 36.6189 30.1721 36.5216 30.1289C36.3997 30.0747 35.3566 30.0502 33.174 30.0502H30.0034V22.5174V14.9846L30.1657 14.9529C30.255 14.9354 30.5366 14.8846 30.7916 14.8399C32.1006 14.6107 33.4467 13.9186 34.521 12.9225C38.5161 9.21807 37.3346 2.78331 32.2571 0.59293C31.0596 0.0763863 29.2475 -0.135415 27.9448 0.0889183ZM30.6957 1.67355C32.5129 2.08912 34.1087 3.39625 34.8815 5.10206C35.3496 6.13522 35.5066 7.74343 35.2433 8.80884C34.7836 10.6693 33.5566 12.1372 31.7956 12.9334C31.0173 13.2854 30.4264 13.428 29.5345 13.4791C28.2602 13.5522 26.9154 13.1934 25.8343 12.4919C25.1931 12.0758 24.3346 11.196 23.9446 10.5553C22.0979 7.52107 23.3613 3.53426 26.6365 2.06081C27.9587 1.46604 29.2497 1.34282 30.6957 1.67355ZM28.6994 3.21768L28.4885 3.4235V4.79717V6.17084L28.2783 6.31695C28.0158 6.49939 27.6951 7.11472 27.6951 7.43587C27.6951 8.3018 28.4072 8.99691 29.2943 8.99691C29.6672 8.99691 30.2707 8.67315 30.4838 8.35883C30.9125 7.72653 30.854 7.0479 30.3207 6.46904L30.0034 6.12451V4.84308C30.0034 3.77394 29.9835 3.52884 29.8833 3.36323C29.6367 2.95582 29.0426 2.88273 28.6994 3.21768ZM9.24426 18.5362L9.26424 22.0905L9.4642 22.2857L9.66409 22.4809L12.2054 22.5028C14.4783 22.5225 14.7709 22.5122 14.9768 22.4059C15.1035 22.3406 15.2333 22.2356 15.2653 22.1727C15.2974 22.1098 15.3399 20.4741 15.3598 18.5378L15.3958 15.0172L17.6861 14.9986L19.9765 14.98V22.4799V29.9798H12.294H4.61145V22.4809V14.9819H6.91786H9.22435L9.24426 18.5362ZM13.8449 18.0463V21.0402L12.312 21.0212L10.7791 21.0022L10.7603 18.0273L10.7414 15.0524H12.2932H13.8449V18.0463ZM35.397 33.0251L35.3776 34.5213H18.4616H1.54566L1.52618 33.0251L1.50671 31.5288H18.4616H35.4165L35.397 33.0251Z" fill="#003DF6" data-darkreader-inline-fill="" style="--darkreader-inline-fill: #0031c5;"></path></svg>