<?xml version="1.0" encoding="UTF-8" standalone="no"?>
<svg
   xmlns:svg="http://www.w3.org/2000/svg"
   xmlns="http://www.w3.org/2000/svg"
   version="1.1"
   width="836.92999"
   height="355.46783"
   id="svg3084">
  <defs
     id="defs3086" />
  <g
     transform="translate(-32.96357,-383.19969)"
     id="layer1">
    <path
       d="m 32.96357,738.66753 836.93,0 0,-355.46784 -836.93,0 0,355.46784 z"
       id="path22"
       style="fill:#cc0000;fill-opacity:1;fill-rule:nonzero;stroke:none" />
    <path
       d="m 212.82455,463.67155 c -30.62097,0.004 -57.78877,12.59052 -66.47061,46.67086 -3.98258,15.62483 -0.24348,26.39024 3.39424,37.33668 -0.16971,0.0905 0.18646,0.79765 0,0.84856 -7.47865,2.11574 -15.68706,4.32766 -28.00251,13.43555 -6.17186,4.56526 -10.28456,10.61832 -14.14268,17.9612 -15.46078,29.43941 -3.79024,61.33965 11.17272,74.81479 10.7541,9.68491 22.55475,14.72536 36.62955,17.81978 7.65402,1.40296 23.194,2.16666 38.32667,-6.64706 0,0 6.22278,-2.86813 14.70839,-9.89987 3.81897,-3.15833 9.217,-8.6141 14.14268,-13.57698 l -11.31415,28.14394 40.5895,0 25.17398,-62.2278 c 0,0 24.36501,-25.80757 34.64957,-22.76972 0,0 7.24671,0.44125 1.83855,14.56696 -5.32331,13.90508 -28.4268,70.43056 -28.4268,70.43056 l 8.20276,0 32.24532,0 24.89112,-61.94495 c 0,0 24.50644,-25.80757 34.791,-22.76972 0,0 7.24671,0.2996 1.83854,14.42554 -1.65752,4.32766 -5.04611,12.89812 -8.90989,22.48686 0,0 -8.90989,23.04692 -9.75845,30.83105 0,0 -1.14273,12.43425 9.19275,16.54694 0,0 0.47519,0.31679 1.55569,0.70713 4.65012,1.88946 11.6762,3.04351 22.20401,2.1214 0,0 12.57002,-0.52045 28.28537,-10.60701 l 21.49688,-13.85983 c 3.73271,8.04432 9.35399,14.74111 17.11264,19.09262 25.00992,14.02955 60.92102,-0.92776 80.18901,-33.37673 5.63752,-9.48799 9.11468,-19.3308 10.74844,-28.99249 3.95642,-1.28846 9.13631,-2.96454 16.26408,-5.65708 0,0 3.62021,-1.11055 8.48561,-3.25281 l -0.1412,0.42405 c -0.2996,1.0409 -0.65056,2.13837 -1.13141,3.39424 -5.10268,13.33938 -26.53167,65.8653 -28.28537,70.14771 -0.0738,0.18646 -0.14165,0.28285 -0.14165,0.28285 l 8.20276,0 32.24531,0 25.03255,-61.94495 c 0,0 24.36501,-25.80756 34.64957,-22.76972 0,0 7.25237,0.44126 1.83855,14.56697 -1.65752,4.33331 -5.04611,12.76235 -8.90989,22.34544 l 0.1412,0 c 0,0 -8.90989,23.04125 -9.75845,30.83104 0,0 -1.28416,12.43425 9.05132,16.54694 0,0 0.62793,0.3168 1.69712,0.70714 4.65577,1.88946 11.54043,3.04916 22.06258,2.1214 0,0 12.57002,-0.5148 28.28537,-10.60701 l 18.10263,-11.597 c 1.33525,1.64204 2.63823,3.44638 4.10138,4.94994 0,0 8.75715,8.55349 18.10263,12.86984 0,0 14.93467,8.32721 36.62955,2.96996 0,0 13.56566,-1.04656 22.91114,-13.57698 2.54569,-2.76065 9.32286,-14.82718 6.78849,-29.98248 0,0 -0.35662,-11.06524 -19.94118,-26.72967 0,0 -5.92296,-5.12531 -14.84982,-12.02128 0,0 -7.46168,-5.86073 -7.35419,-13.7184 0.63925,-6.16056 4.4012,-9.2776 8.90989,-10.32416 0,0 11.17272,-3.00391 20.78974,6.92991 0,0 5.99084,5.56656 8.90989,12.02128 l 8.76846,-21.21402 c -4.14663,-4.76326 -11.31414,-10.64661 -16.82979,-13.7184 0,0 -16.82979,-9.16446 -39.45808,-2.12141 0,0 -20.00907,6.25107 -22.20401,30.5482 0,0 -1.78764,13.56566 10.32416,26.30539 7.97647,8.40641 17.53692,15.8398 17.53692,15.8398 0,0 7.56351,6.00781 7.77848,11.31415 0.42405,4.88205 -1.55004,7.70493 -3.25282,9.61702 0,0 -2.3986,2.78894 -6.22278,2.68711 -2.5966,0.26023 -8.29327,-0.13034 -13.7184,-3.11139 0,0 -9.48126,-3.59224 -17.96121,-18.80977 0,0 0.66188,1.32376 -1.97997,-2.82853 0,0 -12.57568,10.02999 -23.33543,15.98123 0,0 -16.29803,10.44296 -18.24406,3.6771 0,0 -1.66318,-0.65622 4.38423,-15.83981 l 1.13142,-2.68711 21.35545,-52.61078 c 4.53154,-18.07434 -10.56153,-21.60436 -18.66812,-22.20401 l -6.22278,0 c -22.20967,1.20496 -49.49939,24.89112 -49.49939,24.89112 l -0.1412,0 c 0.0738,-0.20908 0.0738,-0.49216 0.1412,-0.70713 l 9.05132,-22.34544 -17.96121,0 -22.62829,0 -6.50563,15.98123 c -1.6959,2.006 -3.81441,3.84455 -6.92992,5.7985 0,0 -16.34075,8.76842 -32.95245,6.50564 -3.40212,-10.69984 -9.93069,-19.6529 -19.5169,-25.03255 -25.00992,-14.02954 -60.91536,0.93341 -80.18901,33.37673 -8.17184,13.75488 -12.04056,28.42299 -11.87985,41.86234 -5.72003,3.98095 -10.90584,7.48068 -14.00126,9.19274 0,0 -16.15094,10.44296 -18.10263,3.6771 0,0 -1.66884,-0.50914 4.38423,-15.69838 l 1.13142,-2.68711 21.21402,-52.7522 c 4.53132,-18.08001 -10.42033,-21.46294 -18.52691,-22.06259 l -6.22278,0 c -22.20967,1.1993 -49.49939,24.7497 -49.49939,24.7497 l -0.28286,0 c 7.03175,-21.21403 -10.65226,-24.4725 -18.80976,-24.89112 l -3.81853,0 c -22.43029,0.31136 -50.20652,23.47685 -50.20652,23.47685 l 8.34418,-21.21403 -40.5895,0 -20.64831,51.33794 c -4.82322,3.48381 -11.54541,8.25928 -19.65833,14.42554 -10.61833,8.06698 -15.55129,12.08916 -20.64832,16.12266 0,0 -3.61487,2.93036 -7.63705,6.22278 -3.79589,3.29807 -9.41902,4.88771 -13.85982,5.09136 -5.36857,0.11903 -6.90163,-0.42994 -10.74844,-1.41427 -6.18884,-1.58963 -12.44556,-5.93992 -12.44556,-5.93992 -3.84116,-3.14534 -7.20146,-6.21147 -9.19275,-11.0313 -0.0272,0.005 -7.91424,-15.47775 -1.13141,-30.68962 4.11269,-9.22103 7.93121,-12.10613 13.57697,-15.8398 0.59965,-0.396 6.44341,-2.93602 7.63705,-2.96996 9.93382,8.95514 21.77973,10.60701 21.77973,10.60701 32.85063,6.41512 44.2666,-7.07134 44.2666,-7.07134 9.5548,-7.4334 6.92991,-21.21403 6.92991,-21.21403 -2.54568,-9.33982 -14.56696,-14.70839 -14.56696,-14.70839 -16.28671,-6.12661 -28.21182,-6.20015 -41.15521,-3.53567 -1.35769,-8.26498 -1.59529,-15.95294 1.97998,-26.30539 7.45602,-21.59304 24.46118,-24.81192 38.18524,-23.7597 10.9125,0.83724 22.23796,7.69927 30.26534,21.35545 0,0 8.72887,-21.94945 8.90989,-22.20401 -11.73842,-12.02128 -23.80496,-20.72186 -43.98374,-21.77973 -2.06872,-0.10907 -4.03996,-0.14166 -6.08135,-0.14121 z m -9.75845,90.08889 c 2.90117,0.0928 6.27582,0.78986 9.61702,2.40426 0,0 4.23715,2.0026 4.10138,4.10138 -0.0964,1.43123 -2.82854,2.54568 -2.82854,2.54568 -9.46994,3.92035 -17.11264,-0.42406 -17.11264,-0.42406 0,0 -4.6388,-2.78893 -6.36421,-5.93992 0.7241,-0.32811 1.47084,-0.69582 4.2428,-1.5557 0,0 3.50888,-1.28583 8.34419,-1.13141 z m 319.90747,15.83981 c 3.65307,-0.25616 6.9253,0.76157 9.61703,3.11139 -4.16524,0.97718 -10.23293,3.78937 -13.85983,11.87985 0,0 -4.64446,12.40596 3.25281,21.0726 0,0 3.71104,4.11834 10.88987,4.80851 0,0 0.72311,0.0452 1.83855,0.1412 -1.79986,4.74864 -4.15075,9.45722 -7.07134,14.00125 -12.25322,19.07 -29.59215,27.07475 -38.60953,17.81978 -9.02303,-9.26062 -6.31329,-32.26228 5.93993,-51.33793 8.42411,-13.10672 19.15413,-20.8765 28.00251,-21.49688 z"
       id="path34"
       style="fill:#000000;fill-opacity:1;fill-rule:evenodd;stroke:none" />
    <path
       d="m 208.44032,453.20597 c -30.62559,0.004 -57.65264,12.59052 -66.32918,46.67085 -3.98258,15.62484 -0.24348,26.39025 3.39424,37.33668 -0.16971,0.0905 0.0407,0.93908 -0.1412,0.98999 -7.47865,2.11575 -15.68706,4.32766 -28.00251,13.43555 -6.17187,4.56526 -10.29022,10.4769 -14.14268,17.81978 -15.466442,29.43941 -3.790244,61.48107 11.17271,74.95622 10.74844,9.6849 22.69618,14.58393 36.77098,17.67835 7.64836,1.40295 23.194,2.16666 38.32667,-6.64706 0,0 6.08135,-2.8738 14.56696,-9.89988 3.77897,-3.12524 9.25647,-8.375 14.14268,-13.29412 l -11.31414,27.86108 40.5895,0 25.17397,-62.2278 c 0,0 24.37067,-25.66614 34.64957,-22.62829 0,0 7.24671,0.2996 1.83855,14.42553 -5.32331,13.90509 -28.42679,70.43056 -28.42679,70.43056 l 8.20275,0 32.24532,0 25.03255,-61.94495 c 0,0 24.37067,-25.80191 34.64957,-22.76971 0,0 7.25237,0.44125 1.83855,14.56696 -1.65187,4.32766 -5.04611,12.7567 -8.90989,22.34544 l 0.1412,0 c 0,0 -9.04566,23.04125 -9.89988,30.83104 0,0 -1.14273,12.43425 9.19275,16.54694 0,0 0.47519,0.31137 1.55569,0.70714 4.65011,1.8838 11.68186,3.0435 22.20401,2.1214 0,0 12.57002,-0.52045 28.28537,-10.60701 l 21.49687,-13.85983 c 3.73254,8.0449 9.49515,14.73921 17.25408,19.09262 25.00992,14.02954 60.91536,-0.92776 80.18901,-33.37673 5.63752,-9.488 9.11535,-19.33081 10.74843,-28.9925 3.94633,-1.28755 9.06784,-2.99119 16.12266,-5.65707 0,0 3.66465,-1.19627 8.62704,-3.39425 l -0.1412,0.56571 c -0.2996,1.0409 -0.65622,2.13837 -1.13142,3.39424 -5.10833,13.33938 -26.53733,65.87096 -28.28536,70.14771 -0.0792,0.18103 -0.1412,0.28285 -0.1412,0.28285 l 8.20275,0 32.24532,0 24.89112,-61.94495 c 0,0 24.50644,-25.66614 34.791,-22.62829 0,0 7.24671,0.2996 1.83855,14.42554 -1.65187,4.32766 -5.04611,12.76235 -8.90989,22.34544 0,0 -8.90989,23.04125 -9.75845,30.83104 0,0 -1.28416,12.43425 9.05131,16.54694 0,0 0.62228,0.3168 1.69713,0.70714 4.65011,1.88946 11.67619,3.04916 22.20401,2.1214 0,0 12.42859,-0.51479 28.14393,-10.60701 l 17.96121,-11.45558 c 1.35154,1.6654 2.90036,3.28369 4.38423,4.80852 0,0 8.75715,8.55915 18.10264,12.86984 0,0 14.79324,8.32721 36.48812,2.96996 0,0 13.56566,-1.04656 22.91114,-13.57697 2.54568,-2.76066 9.32852,-14.82719 6.78849,-29.98249 0,0 -0.20909,-11.06524 -19.79976,-26.72967 0,0 -5.92295,-5.12531 -14.84981,-12.02128 0,0 -7.60311,-5.7193 -7.49562,-13.57698 0.63359,-6.16055 4.53697,-9.2776 9.05131,-10.32415 0,0 11.02564,-3.14534 20.64832,6.78848 0,0 6.13227,5.56656 9.05132,12.02128 l 8.62703,-21.21402 c -4.14663,-4.76326 -11.31414,-10.64661 -16.82979,-13.7184 0,0 -16.68837,-9.16446 -39.31666,-2.1214 0,0 -20.15049,6.25106 -22.34544,30.54819 0,0 -1.64055,13.56 10.46559,26.30539 7.97647,8.40641 17.53693,15.8398 17.53693,15.8398 0,0 7.42208,6.00781 7.63704,11.31415 0.42406,4.88771 -1.40861,7.70493 -3.11139,9.61702 0,0 -2.54002,2.78894 -6.3642,2.68711 -2.5966,0.26023 -8.29893,-0.13577 -13.7184,-3.11139 0,0 -9.48126,-3.59224 -17.96121,-18.80976 0,0 0.8033,1.32375 -1.83855,-2.82854 0,0 -12.7171,10.02999 -23.47685,15.98123 0,0 -16.1566,10.44296 -18.10264,3.6771 0,0 -1.66883,-0.65622 4.38424,-15.83981 l 1.13141,-2.68711 21.21402,-52.61078 c 4.53087,-18.07434 -10.5622,-21.60436 -18.66879,-22.20401 l -6.08135,0 c -22.20967,1.20496 -49.49939,24.89112 -49.49939,24.89112 l -0.28286,0 c 0.0738,-0.20908 0.21497,-0.49782 0.28286,-0.70713 l 9.05132,-22.34544 -17.96121,0 -22.76972,0 -6.50563,16.26409 c -1.66848,1.91747 -3.93199,3.63976 -6.92992,5.51564 0,0 -16.22272,8.74018 -32.81102,6.50564 -3.40185,-10.70622 -10.06787,-19.6505 -19.65833,-25.03255 -25.00992,-14.02954 -60.91536,0.93907 -80.18901,33.37673 -8.17406,13.75705 -11.89823,28.42313 -11.73843,41.86234 -5.75695,4.00684 -11.03074,7.47317 -14.14268,9.19274 0,0 -16.1566,10.44296 -18.10263,3.6771 0,0 -1.66884,-0.50914 4.38423,-15.69838 l 1.13142,-2.68711 21.35545,-52.61078 c 4.53131,-18.08 -10.56176,-21.60436 -18.66835,-22.20401 l -6.22278,0 c -22.20966,1.1993 -49.49938,24.7497 -49.49938,24.7497 l -0.1412,0 c 7.03174,-21.21403 -10.65793,-24.4725 -18.80977,-24.89112 l -3.95995,0 c -22.42464,0.30548 -50.20653,23.47685 -50.20653,23.47685 l 8.48561,-21.0726 -40.58949,0 -20.78975,51.19651 c -4.8186,3.47847 -11.36248,8.2286 -19.5169,14.42554 -10.61832,8.07264 -15.69272,12.08916 -20.78974,16.12266 0,0 -3.61487,2.93036 -7.63705,6.22278 -3.7959,3.29807 -9.41903,4.88771 -13.85983,5.09136 -5.36856,0.11903 -6.90729,-0.42993 -10.74844,-1.41427 -6.19449,-1.59529 -12.44556,-5.93992 -12.44556,-5.93992 -3.84115,-3.15099 -7.1958,-6.20581 -9.19274,-11.03129 -0.0226,0.009 -7.77848,-15.47776 -0.98999,-30.68963 4.11269,-9.22102 7.79545,-12.11179 13.43555,-15.8398 0.60531,-0.40188 6.57917,-2.93036 7.77847,-2.96996 9.93382,8.9608 21.63831,10.74844 21.63831,10.74844 32.85628,6.41512 44.26659,-7.07135 44.26659,-7.07135 9.5548,-7.43339 7.07134,-21.35545 7.07134,-21.35545 -2.55134,-9.34548 -14.56696,-14.56696 -14.56696,-14.56696 -16.28671,-6.12661 -28.35325,-6.34723 -41.29663,-3.6771 -1.3577,-8.26498 -1.5953,-15.81151 1.97998,-26.16396 7.45602,-21.59305 24.60261,-24.81192 38.32666,-23.7597 10.9125,0.83724 22.10219,7.55784 30.12392,21.21402 0,0 8.87029,-21.94944 9.05131,-22.20401 -11.73842,-12.02128 -23.80496,-20.72186 -43.98374,-21.77973 -2.06908,-0.10907 -4.18107,-0.14166 -6.22278,-0.1412 z m -12.44556,90.23031 c 3.38365,-0.22718 7.99063,0.11043 12.44556,2.26283 0,0 4.2428,2.00261 4.10137,4.10138 -0.0905,1.43124 -2.96996,2.54568 -2.96996,2.54568 -9.46994,3.92035 -16.97122,-0.42405 -16.97122,-0.42405 0,0 -4.6388,-2.64751 -6.36421,-5.7985 0.72411,-0.32811 1.47084,-0.83725 4.24281,-1.69712 0,0 2.13204,-0.76298 5.51565,-0.98999 z m 322.59458,15.69838 c 3.6714,-0.25751 7.06206,0.73384 9.75845,3.11139 -4.16537,0.97537 -10.3719,3.7839 -14.00125,11.87985 0,0 -4.64446,12.40031 3.25281,21.0726 0,0 3.71104,4.11269 10.88987,4.80851 0,0 0.65219,0.18737 1.69712,0.28286 -1.7918,4.6927 -4.04417,9.51144 -6.92991,14.00125 -12.25322,19.06999 -29.45073,26.93898 -38.4681,17.67835 -9.01172,-9.26062 -6.46038,-32.26794 5.7985,-51.33793 8.4241,-13.10672 19.15779,-20.8765 28.00251,-21.49688 z"
       id="path58"
       style="fill:#fffde8;fill-opacity:1;fill-rule:evenodd;stroke:none" />
  </g>
</svg>
